<svg width="50" height="51" viewBox="0 0 50 51" fill="none" xmlns="http://www.w3.org/2000/svg">
<path d="M3.43092 37.2234C3.98139 42.3686 8.11963 46.5069 13.2623 47.0801C17.0821 47.5059 21.0041 47.8715 25.0028 47.8715C29.0015 47.8715 32.9235 47.5059 36.7433 47.0801C41.886 46.5069 46.0243 42.3686 46.5747 37.2234C46.9811 33.4252 47.3243 29.5257 47.3243 25.5501C47.3243 21.5746 46.9811 17.675 46.5747 13.8768C46.0243 8.73162 41.886 4.59337 36.7433 4.02014C32.9235 3.59437 29.0015 3.22868 25.0028 3.22868C21.0041 3.22868 17.0821 3.59437 13.2623 4.02014C8.11962 4.59337 3.98139 8.73162 3.43092 13.8768C3.02455 17.675 2.6814 21.5746 2.6814 25.5501C2.6814 29.5257 3.02455 33.4252 3.43092 37.2234Z" fill="white"/>
<path d="M3.43092 37.2234C3.98139 42.3686 8.11963 46.5069 13.2623 47.0801C17.0821 47.5059 21.0041 47.8715 25.0028 47.8715C29.0015 47.8715 32.9235 47.5059 36.7433 47.0801C41.886 46.5069 46.0243 42.3686 46.5747 37.2234C46.9811 33.4252 47.3243 29.5257 47.3243 25.5501C47.3243 21.5746 46.9811 17.675 46.5747 13.8768C46.0243 8.73162 41.886 4.59337 36.7433 4.02014C32.9235 3.59437 29.0015 3.22868 25.0028 3.22868C21.0041 3.22868 17.0821 3.59437 13.2623 4.02014C8.11962 4.59337 3.98139 8.73162 3.43092 13.8768C3.02455 17.675 2.6814 21.5746 2.6814 25.5501C2.6814 29.5257 3.02455 33.4252 3.43092 37.2234Z" stroke="#106D76" stroke-width="5.35714"/>
<path d="M31.252 23.7642C34.7037 23.7642 37.502 20.9659 37.502 17.5142C37.502 14.0624 34.7037 11.2642 31.252 11.2642C27.8002 11.2642 25.002 14.0624 25.002 17.5142C25.002 20.9659 27.8002 23.7642 31.252 23.7642Z" stroke="#106D76" stroke-width="5.35714" stroke-linecap="round" stroke-linejoin="round"/>
<path d="M13.2608 47.0799C8.11814 46.5066 3.97991 42.3684 3.42943 37.2232C3.09553 34.1023 2.80431 30.913 2.71106 27.6693C4.16537 27.4433 5.63568 27.3316 7.10845 27.3356C13.3389 27.1947 19.4167 29.272 24.2575 33.197C28.747 36.8371 31.9016 41.8469 33.2531 47.4408C30.5457 47.6932 27.7922 47.8713 25.0013 47.8713C21.0026 47.8713 17.0806 47.5056 13.2608 47.0799Z" stroke="#106D76" stroke-width="5.35714" stroke-linecap="round" stroke-linejoin="round"/>
<path d="M33.2525 47.441C34.4242 47.3318 35.5873 47.2087 36.7412 47.0801C41.8838 46.5069 46.0221 42.3686 46.5725 37.2234C46.6337 36.6522 46.6933 36.0787 46.7506 35.503C44.3111 34.8225 41.7879 34.4773 39.2506 34.4788C35.4075 34.4704 31.6034 35.2482 28.072 36.7645L28.072 37.0014C30.5475 40.0367 32.3247 43.6012 33.2525 47.441Z" stroke="#106D76" stroke-width="5.35714" stroke-linecap="round" stroke-linejoin="round"/>
</svg>