<svg width="52" height="50" viewBox="0 0 52 50" fill="none" xmlns="http://www.w3.org/2000/svg" xmlns:xlink="http://www.w3.org/1999/xlink">
<path d="M39.316,18.702C38.22,17.708 36.526,17.789 35.532,18.884C34.537,19.979 34.619,21.673 35.714,22.668L39.316,18.702ZM35.714,27.331C34.619,28.326 34.537,30.02 35.532,31.115C36.526,32.21 38.22,32.292 39.316,31.297L35.714,27.331ZM35.714,22.668C36.189,23.1 36.623,23.84 36.623,25L41.98,25C41.98,22.37 40.938,20.176 39.316,18.702L35.714,22.668ZM39.316,31.297C40.938,29.823 41.98,27.629 41.98,25L36.623,25C36.623,26.159 36.189,26.9 35.714,27.331L39.316,31.297Z" fill="#F6F9FC"/>
<path d="M44.513,9.927C43.407,8.945 41.714,9.047 40.732,10.154C39.751,11.26 39.852,12.953 40.959,13.935L44.513,9.927ZM40.959,36.065C39.852,37.046 39.751,38.739 40.732,39.846C41.714,40.953 43.407,41.054 44.513,40.073L40.959,36.065ZM40.959,13.935C43.591,16.269 45.555,19.98 45.555,25L50.912,25C50.912,18.487 48.321,13.303 44.513,9.927L40.959,13.935ZM44.513,40.073C48.321,36.696 50.912,31.512 50.912,25L45.555,25C45.555,30.019 43.591,33.731 40.959,36.065L44.513,40.073Z" fill="#F6F9FC"/>
<path d="M4.114,19.488C3.813,21.218 3.589,23.142 3.589,25C3.589,26.858 3.813,28.782 4.114,30.512C4.694,33.834 7.201,36.605 10.54,37.08C11.365,37.198 12.326,37.298 13.459,37.372C16.159,37.547 18.599,39.056 20.053,41.337C20.623,42.231 21.225,43.103 21.847,43.931C24.644,47.651 29.005,45.503 29.195,40.853C29.354,36.971 29.482,31.752 29.482,25C29.482,18.248 29.354,13.029 29.195,9.147C29.005,4.497 24.644,2.349 21.847,6.069C21.225,6.897 20.623,7.769 20.053,8.663C18.599,10.944 16.159,12.453 13.459,12.628C12.326,12.702 11.365,12.802 10.54,12.92C7.201,13.395 4.694,16.166 4.114,19.488Z" fill="#F6F9FC" stroke="#F6F9FC" stroke-width="2.679" stroke-miterlimit="3.999327" stroke-linecap="round" stroke-linejoin="round"/>
</svg>
