<svg width="96" height="94" viewBox="0 0 96 94" fill="none" xmlns="http://www.w3.org/2000/svg" xmlns:xlink="http://www.w3.org/1999/xlink">
<path d="M87.559,68.946L82.552,68.41L87.559,68.946ZM24.932,87.476L24.374,92.481L24.932,87.476ZM47.004,83.928C39.775,83.928 32.628,83.267 25.49,82.471L24.374,92.481C31.598,93.286 39.197,94 47.004,94L47.004,83.928ZM68.518,82.471C61.38,83.267 54.233,83.928 47.004,83.928L47.004,94C54.81,94 62.409,93.286 69.634,92.481L68.518,82.471ZM92.566,69.481C93.335,62.292 94.004,54.748 94.004,47L83.932,47C83.932,54.2 83.311,61.317 82.552,68.41L92.566,69.481ZM94.004,47C94.004,39.252 93.335,31.707 92.566,24.518L82.552,25.59C83.311,32.682 83.932,39.8 83.932,47L94.004,47ZM47.004,10.071C54.233,10.071 61.38,10.732 68.518,11.528L69.634,1.519C62.409,0.713 54.81,0 47.004,0L47.004,10.071ZM25.49,11.528C32.628,10.732 39.775,10.071 47.004,10.071L47.004,0C39.197,0 31.598,0.713 24.374,1.519L25.49,11.528ZM1.442,24.518C0.672,31.707 0.004,39.252 0.004,47L10.075,47C10.075,39.8 10.697,32.682 11.456,25.59L1.442,24.518ZM0.004,47C0.004,54.748 0.672,62.292 1.442,69.481L11.456,68.41C10.697,61.317 10.075,54.2 10.075,47L0.004,47ZM92.566,24.518C91.279,12.485 81.639,2.857 69.634,1.519L68.518,11.528C75.85,12.345 81.77,18.277 82.552,25.59L92.566,24.518ZM69.634,92.481C81.639,91.143 91.279,81.514 92.566,69.481L82.552,68.41C81.77,75.723 75.85,81.654 68.518,82.471L69.634,92.481ZM24.374,1.519C12.369,2.857 2.729,12.485 1.442,24.518L11.456,25.59C12.238,18.277 18.158,12.345 25.49,11.528L24.374,1.519ZM25.49,82.471C18.158,81.654 12.238,75.723 11.456,68.41L1.442,69.481C2.729,81.514 12.369,91.143 24.374,92.481L25.49,82.471Z" fill="#106D76"/>
<line x1="41.969" y1="30.214" x2="41.969" y2="63.786" stroke="#106D76" stroke-width="5.036" stroke-miterlimit="3.999327" stroke-linecap="round"/>
<line x1="63.79" y1="41.964" x2="30.218" y2="41.964" stroke="#106D76" stroke-width="5.036" stroke-miterlimit="3.999327" stroke-linecap="round"/>
</svg>
