<svg width="44" height="42" viewBox="0 0 44 42" fill="none" xmlns="http://www.w3.org/2000/svg" xmlns:xlink="http://www.w3.org/1999/xlink">
<path d="M42.332,18.908C42.28,24.357 40.88,28.619 37.966,32.323C34.838,36.302 30.765,38.828 25.78,39.851C21.93,40.633 18.183,40.289 14.505,38.957C13.689,38.657 12.89,38.304 12.125,37.883C11.893,37.754 11.695,37.737 11.437,37.823C7.957,38.949 4.468,40.066 0.979,41.175C0.824,41.226 0.618,41.372 0.497,41.26C0.36,41.123 0.532,40.917 0.583,40.753C1.28,38.682 1.976,36.603 2.68,34.532C3.11,33.268 3.522,32.014 3.969,30.759C4.09,30.432 4.047,30.183 3.866,29.882C2.981,28.37 2.328,26.754 1.864,25.061C0.996,21.882 0.901,18.667 1.58,15.453C2.319,11.947 3.866,8.819 6.247,6.121C9.126,2.855 12.675,0.698 16.894,-0.342C19.584,-1.004 22.3,-1.107 25.033,-0.66C28.608,-0.076 31.83,1.342 34.641,3.628C37.562,6.009 39.694,8.965 41.034,12.514C41.773,14.431 42.358,17.567 42.332,18.908ZM5.74,36.07C7.871,35.382 9.908,34.729 11.927,34.067C12.194,33.982 12.408,33.999 12.64,34.153C13.414,34.669 14.247,35.082 15.107,35.442C17.9,36.628 20.805,37.058 23.804,36.671C27.482,36.199 30.713,34.721 33.429,32.151C36.849,28.911 38.68,24.941 38.843,20.249C38.998,15.651 37.519,11.612 34.434,8.183C31.504,4.926 27.826,3.07 23.486,2.606C19.713,2.202 16.181,3.018 12.915,4.978C10.122,6.662 7.983,8.956 6.496,11.853C4.855,15.041 4.296,18.427 4.769,21.976C5.121,24.657 6.083,27.124 7.63,29.341C7.802,29.59 7.854,29.796 7.751,30.089C7.433,30.965 7.149,31.85 6.848,32.727C6.487,33.81 6.135,34.892 5.74,36.07Z" fill="#106D76"/>
<path d="M11.448,14.859C11.491,12.814 12.213,11.293 13.579,10.081C14.017,9.686 14.559,9.514 15.169,9.6C15.427,9.634 15.684,9.66 15.942,9.643C16.424,9.617 16.75,9.849 16.913,10.27C17.489,11.765 18.048,13.261 18.606,14.765C18.795,15.28 18.469,15.684 18.194,16.054C17.876,16.492 17.489,16.879 17.111,17.265C16.724,17.661 16.673,17.884 16.939,18.365C18.495,21.193 20.677,23.367 23.642,24.708C23.745,24.751 23.849,24.811 23.952,24.862C24.347,25.043 24.699,25 25,24.656C25.55,24.011 26.152,23.419 26.659,22.74C26.994,22.293 27.226,22.215 27.733,22.439C29.245,23.092 30.663,23.917 32.107,24.716C32.374,24.862 32.468,25.086 32.46,25.395C32.382,27.93 30.93,29.254 28.377,29.838C27.14,30.122 25.997,29.812 24.863,29.4C22.482,28.54 20.188,27.526 18.263,25.825C16.733,24.467 15.384,22.954 14.241,21.261C13.364,19.955 12.453,18.675 11.946,17.154C11.654,16.346 11.439,15.521 11.448,14.859Z" fill="#106D76"/>
</svg>
