<svg width="42" height="38" viewBox="0 0 42 38" fill="none" xmlns="http://www.w3.org/2000/svg" xmlns:xlink="http://www.w3.org/1999/xlink">
<path d="M37.377,8.025L39.504,7.761L37.377,8.025ZM32.084,33.42L31.861,31.289L31.861,31.289L32.084,33.42ZM37.377,28.235L35.251,27.971L37.377,28.235ZM8.566,2.84L8.788,4.971L8.788,4.971L8.566,2.84ZM8.566,33.42L8.343,35.551L8.566,33.42ZM20.325,32.093C16.425,32.093 12.604,31.687 8.788,31.289L8.343,35.551C12.118,35.946 16.163,36.378 20.325,36.378L20.325,32.093ZM31.861,31.289C28.046,31.687 24.225,32.093 20.325,32.093L20.325,36.378C24.487,36.378 28.532,35.946 32.307,35.551L31.861,31.289ZM39.504,28.499C39.909,25.239 40.325,21.738 40.325,18.13L36.039,18.13C36.039,21.439 35.657,24.696 35.251,27.971L39.504,28.499ZM40.325,18.13C40.325,14.522 39.909,11.021 39.504,7.761L35.251,8.289C35.657,11.563 36.039,14.82 36.039,18.13L40.325,18.13ZM20.325,4.167C24.225,4.167 28.046,4.572 31.861,4.971L32.307,0.709C28.532,0.314 24.487,-0.118 20.325,-0.118L20.325,4.167ZM8.788,4.971C12.604,4.572 16.425,4.167 20.325,4.167L20.325,-0.118C16.163,-0.118 12.118,0.314 8.343,0.709L8.788,4.971ZM1.146,7.761C0.741,11.021 0.325,14.522 0.325,18.13L4.611,18.13C4.611,14.82 4.993,11.563 5.399,8.289L1.146,7.761ZM0.325,18.13C0.325,21.738 0.741,25.239 1.146,28.499L5.399,27.971C4.993,24.696 4.611,21.439 4.611,18.13L0.325,18.13ZM39.504,7.761C39.041,4.032 36.038,1.099 32.307,0.709L31.861,4.971C33.615,5.155 35.034,6.545 35.251,8.289L39.504,7.761ZM32.307,35.551C36.038,35.161 39.041,32.228 39.504,28.499L35.251,27.971C35.034,29.715 33.615,31.105 31.861,31.289L32.307,35.551ZM8.343,0.709C4.612,1.099 1.609,4.032 1.146,7.761L5.399,8.289C5.616,6.545 7.034,5.155 8.788,4.971L8.343,0.709ZM8.788,31.289C7.034,31.105 5.616,29.715 5.399,27.971L1.146,28.499C1.609,32.228 4.612,35.161 8.343,35.551L8.788,31.289Z" fill="#F6F9FC"/>
<path d="M16.789,17.878L15.462,19.561L16.789,17.878ZM2.027,8.968L15.462,19.561L18.115,16.195L4.681,5.602L2.027,8.968ZM35.973,5.602L22.538,16.195L25.191,19.561L38.626,8.968L35.973,5.602ZM15.462,19.561C18.315,21.81 22.338,21.81 25.191,19.561L22.538,16.195C21.241,17.218 19.412,17.218 18.115,16.195L15.462,19.561Z" fill="#F6F9FC"/>
</svg>
