<svg width="120" height="112" viewBox="0 0 120 112" fill="none" xmlns="http://www.w3.org/2000/svg" xmlns:xlink="http://www.w3.org/1999/xlink">
<path d="M80.551,49.647C77,49.647 74.122,52.526 74.122,56.076C74.122,59.626 77,62.505 80.551,62.505L80.551,49.647ZM90.136,10.277C86.817,9.016 83.104,10.684 81.843,14.003C80.582,17.322 82.25,21.035 85.569,22.296L90.136,10.277ZM94.684,35.514C94.684,43.32 88.356,49.647 80.551,49.647L80.551,62.505C95.457,62.505 107.541,50.421 107.541,35.514L94.684,35.514ZM85.569,22.296C90.907,24.324 94.684,29.486 94.684,35.514L107.541,35.514C107.541,23.973 100.3,14.139 90.136,10.277L85.569,22.296Z" fill="#106D76"/>
<path d="M61.809,29.711C61.809,38.47 54.708,45.571 45.949,45.571L45.949,58.428C61.809,58.428 74.666,45.571 74.666,29.711L61.809,29.711ZM45.949,45.571C37.189,45.571 30.088,38.47 30.088,29.711L17.231,29.711C17.231,45.571 30.089,58.428 45.949,58.428L45.949,45.571ZM30.088,29.711C30.088,20.951 37.189,13.85 45.949,13.85L45.949,0.993C30.089,0.993 17.231,13.85 17.231,29.711L30.088,29.711ZM45.949,13.85C54.708,13.85 61.809,20.951 61.809,29.711L74.666,29.711C74.666,13.85 61.809,0.993 45.949,0.993L45.949,13.85Z" fill="#106D76"/>
<path d="M80.093,83.314L76.529,88.665L80.093,83.314ZM11.783,83.314L15.347,88.665L15.347,88.665L11.783,83.314ZM21.342,111.01L70.534,111.01L70.534,98.152L21.342,98.152L21.342,111.01ZM15.347,88.665C24.103,82.833 34.614,79.434 45.938,79.434L45.938,66.577C32,66.577 19.022,70.769 8.219,77.964L15.347,88.665ZM45.938,79.434C57.262,79.434 67.773,82.833 76.529,88.665L83.656,77.964C72.854,70.769 59.876,66.577 45.938,66.577L45.938,79.434ZM70.534,111.01C79.367,111.01 86.846,106.256 90.11,99.451C91.758,96.016 92.334,91.998 91.242,88.005C90.14,83.976 87.491,80.518 83.656,77.964L76.529,88.665C78.146,89.742 78.665,90.757 78.84,91.396C79.025,92.072 78.985,92.916 78.518,93.89C77.552,95.904 74.8,98.152 70.534,98.152L70.534,111.01ZM21.342,98.152C17.075,98.152 14.324,95.904 13.358,93.89C12.891,92.916 12.851,92.072 13.036,91.396C13.211,90.757 13.73,89.742 15.347,88.665L8.219,77.964C4.385,80.518 1.736,83.976 0.634,88.005C-0.458,91.998 0.118,96.016 1.766,99.451C5.03,106.256 12.509,111.01 21.342,111.01L21.342,98.152Z" fill="#106D76"/>
<path d="M108.638,84.961L105.074,90.312L108.638,84.961ZM68.641,98.151C65.09,98.151 62.212,101.03 62.212,104.58C62.212,108.13 65.09,111.009 68.641,111.009L68.641,98.151ZM102.385,74.259C99.129,72.842 95.342,74.333 93.925,77.589C92.508,80.844 93.999,84.632 97.254,86.048L102.385,74.259ZM68.641,111.009L99.82,111.009L99.82,98.151L68.641,98.151L68.641,111.009ZM99.82,111.009C108.145,111.009 115.228,106.526 118.328,100.063C119.894,96.799 120.446,92.969 119.403,89.157C118.351,85.309 115.825,82.024 112.201,79.611L105.074,90.312C106.48,91.248 106.876,92.09 107.002,92.548C107.137,93.043 107.121,93.699 106.736,94.502C105.934,96.174 103.579,98.151 99.82,98.151L99.82,111.009ZM97.254,86.048C99.995,87.241 102.61,88.671 105.074,90.312L112.201,79.611C109.111,77.552 105.828,75.758 102.385,74.259L97.254,86.048Z" fill="#106D76"/>
</svg>
