<svg width="46" height="42" viewBox="0 0 46 42" fill="none" xmlns="http://www.w3.org/2000/svg" xmlns:xlink="http://www.w3.org/1999/xlink">
<path d="M24.091,13.403C23.909,10.762 21.622,8.916 19.004,9.31C18.612,9.369 18.148,9.432 17.563,9.497C13.852,9.911 10.866,12.897 10.469,16.609C10.176,19.35 9.928,22.164 9.928,25.032C9.928,27.901 10.176,30.715 10.469,33.455C10.866,37.168 13.852,40.154 17.563,40.568C18.22,40.641 18.723,40.712 19.142,40.777C21.668,41.17 23.912,39.421 24.098,36.871C24.182,35.71 24.215,34.536 24.245,33.381C24.286,31.787 23.044,30.362 21.452,30.251C21.173,30.232 20.811,30.214 20.302,30.197C19.345,26.437 19.362,23.56 20.302,19.868C20.82,19.851 21.186,19.833 21.468,19.813C23.058,19.701 24.297,18.281 24.243,16.688C24.207,15.598 24.166,14.497 24.091,13.403Z" transform="rotate(-90 17.142 25.033)" fill="#F6F9FC" stroke="#020202" stroke-width="2.4" stroke-miterlimit="3.999327" stroke-linejoin="round"/>
<path d="M30.853,16.796C31.88,17.635 33.392,17.482 34.23,16.456C35.068,15.429 34.916,13.917 33.889,13.079L30.853,16.796ZM21.442,13.246C20.438,14.112 20.326,15.627 21.192,16.631C22.057,17.635 23.573,17.747 24.577,16.881L21.442,13.246ZM27.765,15.697C28.939,15.697 30.011,16.108 30.853,16.796L33.889,13.079C32.221,11.716 30.086,10.897 27.765,10.897L27.765,15.697ZM24.577,16.881C25.434,16.142 26.545,15.697 27.765,15.697L27.765,10.897C25.351,10.897 23.137,11.784 21.442,13.246L24.577,16.881Z" transform="rotate(78.897 27.69 14.181)" fill="#020202"/>
<path d="M41.613,11.818C42.639,12.657 44.151,12.504 44.99,11.477C45.828,10.451 45.676,8.939 44.649,8.1L41.613,11.818ZM20.435,8.427C19.432,9.293 19.32,10.808 20.185,11.812C21.051,12.816 22.567,12.927 23.57,12.062L20.435,8.427ZM32.737,8.658C36.106,8.658 39.193,9.842 41.613,11.818L44.649,8.1C41.403,5.45 37.253,3.858 32.737,3.858L32.737,8.658ZM23.57,12.062C26.032,9.939 29.232,8.658 32.737,8.658L32.737,3.858C28.038,3.858 23.735,5.581 20.435,8.427L23.57,12.062Z" transform="rotate(78.897 32.567 8.251)" fill="#020202"/>
</svg>
