<svg width="100" height="96" viewBox="0 0 100 96" fill="none" xmlns="http://www.w3.org/2000/svg" xmlns:xlink="http://www.w3.org/1999/xlink">
<path d="M17.582,87.707L16.976,93.03L16.976,93.03L17.582,87.707ZM5.869,76.933L11.156,76.069L5.869,76.933ZM80.632,87.707L81.239,93.03L81.239,93.03L80.632,87.707ZM92.346,76.933L97.633,77.797L97.633,77.797L92.346,76.933ZM18.188,30.788C21.128,30.453 23.24,27.798 22.905,24.859C22.57,21.919 19.915,19.807 16.976,20.142L18.188,30.788ZM5.869,36.239L11.156,37.103L11.156,37.103L5.869,36.239ZM81.239,20.142C78.299,19.807 75.645,21.919 75.31,24.859C74.975,27.798 77.087,30.453 80.026,30.788L81.239,20.142ZM92.346,36.239L87.059,37.103L87.059,37.103L92.346,36.239ZM16.976,93.03C27.232,94.198 37.994,95.086 49.107,95.086L49.107,84.372C38.551,84.372 28.227,83.528 18.188,82.384L16.976,93.03ZM11.156,76.069C10.254,70.555 9.821,64.778 9.821,56.586L-0.893,56.586C-0.893,65.186 -0.437,71.565 0.582,77.797L11.156,76.069ZM80.026,82.384C69.987,83.528 59.664,84.372 49.107,84.372L49.107,95.086C60.22,95.086 70.983,94.198 81.239,93.03L80.026,82.384ZM97.633,77.797C98.652,71.565 99.107,65.186 99.107,56.586L88.393,56.586C88.393,64.778 87.96,70.555 87.059,76.069L97.633,77.797ZM0.582,35.375C-0.437,41.607 -0.893,47.985 -0.893,56.586L9.821,56.586C9.821,48.393 10.254,42.617 11.156,37.103L0.582,35.375ZM87.059,37.103C87.96,42.617 88.393,48.393 88.393,56.586L99.107,56.586C99.107,47.985 98.652,41.607 97.633,35.375L87.059,37.103ZM80.026,30.788C83.73,31.21 86.529,33.861 87.059,37.103L97.633,35.375C96.259,26.971 89.26,21.056 81.239,20.142L80.026,30.788ZM16.976,20.142C8.955,21.056 1.956,26.971 0.582,35.375L11.156,37.103C11.686,33.861 14.484,31.21 18.188,30.788L16.976,20.142ZM81.239,93.03C89.26,92.116 96.259,86.201 97.633,77.797L87.059,76.069C86.529,79.311 83.73,81.963 80.026,82.384L81.239,93.03ZM18.188,82.384C14.484,81.963 11.686,79.311 11.156,76.069L0.582,77.797C1.956,86.201 8.955,92.116 16.976,93.03L18.188,82.384Z" fill="#106D76"/>
<path d="M4.976,34.782L36.927,60.108L43.583,51.712L11.632,26.386L4.976,34.782ZM86.665,26.454L54.662,51.722L61.302,60.131L93.305,34.863L86.665,26.454ZM36.927,60.108C44.064,65.765 54.154,65.775 61.302,60.131L54.662,51.722C51.413,54.288 46.827,54.283 43.583,51.712L36.927,60.108Z" fill="#106D76"/>
<path d="M37.354,10.431C35.216,7.821 31.366,7.439 28.756,9.577C26.146,11.715 25.764,15.564 27.903,18.174L37.354,10.431ZM49.422,31.097L45.572,35.84C47.816,37.661 51.029,37.661 53.273,35.84L49.422,31.097ZM70.942,18.174C73.081,15.564 72.698,11.715 70.089,9.577C67.479,7.439 63.629,7.821 61.491,10.431L70.942,18.174ZM27.903,18.174C34.189,25.847 38.161,29.824 45.572,35.84L53.273,26.354C46.531,20.881 43.141,17.495 37.354,10.431L27.903,18.174ZM61.491,10.431C55.704,17.495 52.313,20.881 45.572,26.354L53.273,35.84C60.684,29.824 64.656,25.847 70.942,18.174L61.491,10.431Z" fill="#106D76"/>
<path d="M63.947,8.719C66.039,6.627 66.039,3.235 63.947,1.142C61.855,-0.95 58.463,-0.95 56.371,1.142L63.947,8.719ZM34.771,22.742C32.679,24.834 32.679,28.226 34.771,30.318C36.863,32.41 40.255,32.41 42.348,30.318L34.771,22.742ZM56.371,1.142L34.771,22.742L42.348,30.318L63.947,8.719L56.371,1.142Z" transform="rotate(270 49.359 15.73)" fill="#106D76"/>
</svg>
