<svg width="46" height="44" viewBox="0 0 46 44" fill="none" xmlns="http://www.w3.org/2000/svg" xmlns:xlink="http://www.w3.org/1999/xlink">
<path d="M17.89,9.627L17.624,7.241L17.89,9.627ZM10.796,16.739L13.183,16.994L13.183,16.994L10.796,16.739ZM10.796,33.585L8.41,33.84L10.796,33.585ZM17.89,40.697L18.156,38.312L18.156,38.312L17.89,40.697ZM20.629,30.326L18.303,30.919C18.567,31.954 19.484,32.691 20.552,32.725L20.629,30.326ZM20.629,19.997L20.552,17.599C19.484,17.633 18.567,18.37 18.303,19.405L20.629,19.997ZM21.779,30.381L21.946,27.986L21.779,30.381ZM24.572,33.511L22.173,33.449L24.572,33.511ZM24.57,16.818L22.172,16.899L24.57,16.818ZM21.795,19.942L21.627,17.548L21.795,19.942ZM13.183,16.994C13.459,14.406 15.559,12.301 18.156,12.012L17.624,7.241C12.8,7.779 8.927,11.646 8.41,16.484L13.183,16.994ZM12.655,25.162C12.655,22.424 12.892,19.712 13.183,16.994L8.41,16.484C8.114,19.247 7.855,22.163 7.855,25.162L12.655,25.162ZM13.183,33.33C12.892,30.612 12.655,27.9 12.655,25.162L7.855,25.162C7.855,28.161 8.114,31.077 8.41,33.84L13.183,33.33ZM18.156,38.312C15.559,38.022 13.459,35.917 13.183,33.33L8.41,33.84C8.927,38.678 12.8,42.545 17.624,43.082L18.156,38.312ZM18.156,12.012C18.773,11.943 19.268,11.876 19.688,11.813L18.974,7.066C18.611,7.121 18.177,7.18 17.624,7.241L18.156,12.012ZM26.969,16.737C26.932,15.646 26.89,14.508 26.812,13.368L22.023,13.697C22.095,14.745 22.135,15.809 22.172,16.899L26.969,16.737ZM21.627,17.548C21.384,17.565 21.05,17.582 20.552,17.599L20.706,22.396C21.244,22.379 21.642,22.359 21.964,22.336L21.627,17.548ZM18.303,19.405C17.266,23.481 17.246,26.765 18.303,30.919L22.955,29.734C22.098,26.367 22.113,23.897 22.955,20.589L18.303,19.405ZM20.552,32.725C21.042,32.741 21.372,32.758 21.613,32.775L21.946,27.986C21.628,27.964 21.235,27.945 20.707,27.928L20.552,32.725ZM26.819,37.174C26.908,35.95 26.942,34.724 26.972,33.573L22.173,33.449C22.143,34.607 22.111,35.729 22.031,36.826L26.819,37.174ZM19.838,38.535C19.388,38.465 18.851,38.389 18.156,38.312L17.624,43.082C18.244,43.151 18.713,43.217 19.1,43.278L19.838,38.535ZM21.613,32.775C21.727,32.783 21.867,32.84 21.992,32.981C22.118,33.124 22.177,33.296 22.173,33.449L26.972,33.573C27.044,30.75 24.875,28.19 21.946,27.986L21.613,32.775ZM22.031,36.826C21.95,37.948 21.006,38.717 19.838,38.535L19.1,43.278C22.983,43.882 26.529,41.152 26.819,37.174L22.031,36.826ZM22.172,16.899C22.177,17.044 22.122,17.209 22,17.346C21.881,17.482 21.743,17.54 21.627,17.548L21.964,22.336C24.885,22.131 27.065,19.576 26.969,16.737L22.172,16.899ZM19.688,11.813C20.912,11.628 21.937,12.447 22.023,13.697L26.812,13.368C26.535,9.336 22.986,6.462 18.974,7.066L19.688,11.813Z" transform="rotate(-90 17.469 25.162)" fill="#F6F9FC"/>
<path d="M31.18,16.926C32.207,17.764 33.719,17.612 34.557,16.585C35.396,15.558 35.243,14.046 34.216,13.208L31.18,16.926ZM21.769,13.376C20.765,14.241 20.653,15.757 21.519,16.761C22.385,17.764 23.9,17.876 24.904,17.011L21.769,13.376ZM28.093,15.827C29.266,15.827 30.338,16.238 31.18,16.926L34.216,13.208C32.548,11.846 30.413,11.027 28.093,11.027L28.093,15.827ZM24.904,17.011C25.761,16.271 26.872,15.827 28.093,15.827L28.093,11.027C25.678,11.027 23.465,11.913 21.769,13.376L24.904,17.011Z" transform="rotate(78.897 28.017 14.31)" fill="#F6F9FC"/>
<path d="M41.94,11.948C42.966,12.786 44.478,12.633 45.317,11.607C46.155,10.58 46.003,9.068 44.976,8.23L41.94,11.948ZM20.763,8.556C19.759,9.422 19.647,10.937 20.513,11.941C21.378,12.945 22.894,13.057 23.897,12.191L20.763,8.556ZM33.064,8.788C36.433,8.788 39.52,9.971 41.94,11.948L44.976,8.23C41.731,5.579 37.58,3.988 33.064,3.988L33.064,8.788ZM23.897,12.191C26.359,10.069 29.559,8.788 33.064,8.788L33.064,3.988C28.365,3.988 24.062,5.711 20.763,8.556L23.897,12.191Z" transform="rotate(78.897 32.894 8.381)" fill="#F6F9FC"/>
</svg>
