<svg width="102" height="100" viewBox="0 0 102 100" fill="none" xmlns="http://www.w3.org/2000/svg" xmlns:xlink="http://www.w3.org/1999/xlink">
<path d="M6.862,72.447C7.963,82.737 16.239,91.014 26.525,92.16C34.164,93.012 42.008,93.743 50.006,93.743C58.003,93.743 65.847,93.012 73.487,92.16C83.772,91.014 92.049,82.737 93.149,72.447C93.962,64.85 94.649,57.051 94.649,49.1C94.649,41.149 93.962,33.35 93.149,25.754C92.049,15.463 83.772,7.187 73.487,6.04C65.847,5.189 58.003,4.457 50.006,4.457C42.008,4.457 34.164,5.189 26.525,6.04C16.239,7.187 7.963,15.463 6.862,25.754C6.049,33.35 5.363,41.149 5.363,49.1C5.363,57.051 6.049,64.85 6.862,72.447Z" fill="#FFFFFF"/>
<path d="M93.149,25.754L87.823,26.324L93.149,25.754ZM73.487,6.04L74.08,0.716L73.487,6.04ZM73.487,92.16L72.893,86.836L73.487,92.16ZM93.149,72.447L87.823,71.877L93.149,72.447ZM26.525,6.04L25.931,0.716L26.525,6.04ZM6.862,25.754L12.189,26.324L6.862,25.754ZM26.525,92.16L27.118,86.836L26.525,92.16ZM6.862,72.447L12.189,71.877L12.189,71.877L6.862,72.447ZM50.006,88.386C42.316,88.386 34.712,87.682 27.118,86.836L25.931,97.484C33.617,98.341 41.701,99.1 50.006,99.1L50.006,88.386ZM72.893,86.836C65.3,87.682 57.696,88.386 50.006,88.386L50.006,99.1C58.31,99.1 66.394,98.341 74.08,97.484L72.893,86.836ZM98.476,73.017C99.294,65.369 100.006,57.343 100.006,49.1L89.291,49.1C89.291,56.76 88.63,64.332 87.823,71.877L98.476,73.017ZM100.006,49.1C100.006,40.858 99.294,32.832 98.476,25.184L87.823,26.324C88.63,33.869 89.291,41.441 89.291,49.1L100.006,49.1ZM50.006,9.815C57.696,9.815 65.3,10.518 72.893,11.364L74.08,0.716C66.394,-0.141 58.31,-0.9 50.006,-0.9L50.006,9.815ZM27.118,11.364C34.712,10.518 42.316,9.815 50.006,9.815L50.006,-0.9C41.701,-0.9 33.617,-0.141 25.931,0.716L27.118,11.364ZM1.535,25.184C0.717,32.832 0.006,40.858 0.006,49.1L10.72,49.1C10.72,41.441 11.381,33.869 12.189,26.324L1.535,25.184ZM0.006,49.1C0.006,57.343 0.717,65.369 1.535,73.017L12.189,71.877C11.381,64.332 10.72,56.76 10.72,49.1L0.006,49.1ZM98.476,25.184C97.107,12.383 86.851,2.14 74.08,0.716L72.893,11.364C80.693,12.234 86.99,18.544 87.823,26.324L98.476,25.184ZM74.08,97.484C86.851,96.061 97.107,85.818 98.476,73.017L87.823,71.877C86.99,79.657 80.693,85.967 72.893,86.836L74.08,97.484ZM25.931,0.716C13.16,2.14 2.905,12.383 1.535,25.184L12.189,26.324C13.021,18.544 19.318,12.234 27.118,11.364L25.931,0.716ZM27.118,86.836C19.318,85.967 13.021,79.657 12.189,71.877L1.535,73.017C2.905,85.818 13.16,96.061 25.931,97.484L27.118,86.836Z" fill="#106D76"/>
<path d="M69.647,33.028C69.647,36.973 66.449,40.171 62.504,40.171L62.504,50.886C72.366,50.886 80.361,42.891 80.361,33.028L69.647,33.028ZM62.504,40.171C58.559,40.171 55.361,36.973 55.361,33.028L44.647,33.028C44.647,42.891 52.642,50.886 62.504,50.886L62.504,40.171ZM55.361,33.028C55.361,29.083 58.559,25.885 62.504,25.885L62.504,15.171C52.642,15.171 44.647,23.166 44.647,33.028L55.361,33.028ZM62.504,25.885C66.449,25.885 69.647,29.083 69.647,33.028L80.361,33.028C80.361,23.166 72.366,15.171 62.504,15.171L62.504,25.885Z" fill="#106D76"/>
<path d="M26.522,92.16L25.928,97.484L25.928,97.484L26.522,92.16ZM6.859,72.446L12.186,71.877L12.186,71.877L6.859,72.446ZM5.422,53.339L4.599,48.045C1.932,48.46 -0.01,50.794 0.067,53.493L5.422,53.339ZM14.217,52.671L14.203,58.028C14.248,58.028 14.293,58.028 14.338,58.027L14.217,52.671ZM48.515,64.394L45.141,68.555L45.141,68.555L48.515,64.394ZM66.506,92.882L67.004,98.216C68.552,98.071 69.961,97.261 70.865,95.996C71.769,94.731 72.079,93.135 71.714,91.623L66.506,92.882ZM27.115,86.835C19.315,85.966 13.018,79.656 12.186,71.877L1.532,73.016C2.902,85.817 13.157,96.06 25.928,97.484L27.115,86.835ZM12.186,71.877C11.523,65.68 10.958,59.464 10.777,53.185L0.067,53.493C0.26,60.188 0.859,66.729 1.532,73.016L12.186,71.877ZM6.245,58.632C8.877,58.223 11.537,58.021 14.203,58.028L14.231,47.314C11.005,47.305 7.785,47.55 4.599,48.045L6.245,58.632ZM14.338,58.027C25.529,57.774 36.446,61.505 45.141,68.555L51.889,60.233C41.221,51.583 27.827,47.005 14.096,47.315L14.338,58.027ZM45.141,68.555C53.205,75.093 58.871,84.092 61.299,94.14L71.714,91.623C68.735,79.295 61.783,68.255 51.889,60.233L45.141,68.555ZM66.009,87.548C60.691,88.043 55.362,88.385 50.003,88.385L50.003,99.1C55.807,99.1 61.492,98.729 67.004,98.216L66.009,87.548ZM50.003,88.385C42.313,88.385 34.709,87.682 27.115,86.835L25.928,97.484C33.614,98.34 41.698,99.1 50.003,99.1L50.003,88.385Z" fill="#106D76"/>
<path d="M66.505,92.882L61.298,94.14C61.923,96.727 64.352,98.463 67.002,98.216L66.505,92.882ZM73.482,92.16L72.889,86.836L72.889,86.836L73.482,92.16ZM93.145,72.447L87.818,71.877L87.818,71.877L93.145,72.447ZM93.501,69.006L98.832,69.537C99.09,66.946 97.448,64.545 94.941,63.846L93.501,69.006ZM78.501,66.958L78.489,72.315L78.504,72.315L78.501,66.958ZM56.144,71.529L54.03,66.606C52.063,67.451 50.787,69.387 50.787,71.529L56.144,71.529ZM56.144,72.003L50.787,72.003C50.787,73.237 51.213,74.433 51.993,75.389L56.144,72.003ZM67.002,98.216C69.389,97.994 71.749,97.744 74.076,97.484L72.889,86.836C70.6,87.091 68.308,87.334 66.008,87.548L67.002,98.216ZM74.076,97.484C86.847,96.061 97.102,85.818 98.472,73.017L87.818,71.877C86.986,79.657 80.689,85.967 72.889,86.836L74.076,97.484ZM98.472,73.017C98.595,71.864 98.716,70.704 98.832,69.537L88.17,68.475C88.057,69.611 87.939,70.745 87.818,71.877L98.472,73.017ZM94.941,63.846C89.592,62.354 84.061,61.597 78.498,61.6L78.504,72.315C83.091,72.312 87.652,72.936 92.062,74.166L94.941,63.846ZM78.513,61.6C70.096,61.582 61.765,63.286 54.03,66.606L58.258,76.452C64.649,73.707 71.534,72.3 78.489,72.315L78.513,61.6ZM50.787,71.529L50.787,72.003L61.501,72.003L61.501,71.529L50.787,71.529ZM51.993,75.389C56.439,80.841 59.631,87.243 61.298,94.14L71.712,91.624C69.668,83.161 65.751,75.306 60.296,68.617L51.993,75.389Z" fill="#106D76"/>
</svg>
