<svg width="56" height="110" viewBox="0 0 56 110" fill="none" xmlns="http://www.w3.org/2000/svg" xmlns:xlink="http://www.w3.org/1999/xlink">
<path d="M28.115,6.897L27.522,1.573L28.115,6.897ZM6.092,28.976L11.419,29.546L11.419,29.546L6.092,28.976ZM6.092,81.273L0.766,81.843L6.092,81.273ZM28.115,103.353L28.709,98.029L28.709,98.029L28.115,103.353ZM36.618,71.158L31.427,72.479C32.015,74.791 34.061,76.435 36.446,76.512L36.618,71.158ZM36.618,39.091L36.446,33.737C34.061,33.814 32.015,35.458 31.427,37.77L36.618,39.091ZM48.905,79.29L43.549,79.151L48.905,79.29ZM48.913,30.971L43.559,31.15L48.913,30.971ZM41.983,38.762L41.385,33.439L41.983,38.762ZM11.419,29.546C12.384,20.531 19.674,13.228 28.709,12.221L27.522,1.573C13.516,3.134 2.267,14.37 0.766,28.406L11.419,29.546ZM9.771,55.125C9.771,46.511 10.514,38.003 11.419,29.546L0.766,28.406C-0.15,36.966 -0.944,45.928 -0.944,55.125L9.771,55.125ZM11.419,80.704C10.514,72.247 9.771,63.739 9.771,55.125L-0.944,55.125C-0.944,64.322 -0.15,73.284 0.766,81.843L11.419,80.704ZM28.709,98.029C19.674,97.022 12.384,89.718 11.419,80.704L0.766,81.843C2.267,95.879 13.516,107.116 27.522,108.677L28.709,98.029ZM28.709,12.221C32.205,11.831 34.395,11.46 36.161,11.166L34.403,0.597C32.681,0.884 30.722,1.216 27.522,1.573L28.709,12.221ZM54.267,30.791C54.105,25.977 53.948,20.871 53.504,15.831L42.831,16.771C43.244,21.464 43.395,26.259 43.559,31.15L54.267,30.791ZM41.385,33.439C40.492,33.539 39.279,33.646 36.446,33.737L36.791,44.446C39.81,44.348 41.322,44.228 42.582,44.086L41.385,33.439ZM31.427,37.77C28.291,50.089 28.232,59.928 31.427,72.479L41.81,69.836C39.062,59.039 39.111,51.017 41.81,40.413L31.427,37.77ZM36.446,76.512C39.246,76.603 40.457,76.708 41.339,76.806L42.532,66.159C41.282,66.019 39.773,65.9 36.791,65.804L36.446,76.512ZM53.515,94.997C54.025,89.74 54.132,84.369 54.26,79.429L43.549,79.151C43.418,84.222 43.316,89.165 42.85,93.961L53.515,94.997ZM36.475,99.141C34.677,98.841 32.443,98.445 28.709,98.029L27.522,108.677C30.933,109.057 32.906,109.408 34.713,109.709L36.475,99.141ZM41.339,76.806C42.703,76.959 43.577,78.105 43.549,79.151L54.26,79.429C54.44,72.5 49.096,66.894 42.532,66.159L41.339,76.806ZM42.85,93.961C42.513,97.441 39.518,99.648 36.475,99.141L34.713,109.709C44.278,111.305 52.617,104.24 53.515,94.997L42.85,93.961ZM43.559,31.15C43.592,32.147 42.759,33.284 41.385,33.439L42.582,44.086C49.126,43.35 54.5,37.758 54.267,30.791L43.559,31.15ZM36.161,11.166C39.317,10.642 42.497,12.983 42.831,16.771L53.504,15.831C52.676,6.433 44.303,-1.049 34.403,0.597L36.161,11.166Z" transform="rotate(-90 26.808 55.125)" fill="#106D76"/>
</svg>
