<svg width="50" height="42" viewBox="0 0 50 42" fill="none" xmlns="http://www.w3.org/2000/svg" xmlns:xlink="http://www.w3.org/1999/xlink">
<path d="M43.643,6.41L49,6.41C49,3.594 46.82,1.258 44.011,1.065L43.643,6.41ZM12.652,34.739L12.399,40.091L12.652,34.739ZM49,27.728L49,6.41L38.286,6.41L38.286,27.728L49,27.728ZM36.748,29.422C28.771,29.776 20.887,29.765 12.904,29.388L12.399,40.091C20.708,40.483 28.919,40.494 37.223,40.126L36.748,29.422ZM12.904,11.418C23.054,10.939 33.046,11.051 43.276,11.754L44.011,1.065C33.373,0.334 22.967,0.217 12.399,0.716L12.904,11.418ZM0.812,11.872C0.343,17.786 0.343,23.021 0.812,28.935L11.493,28.086C11.068,22.737 11.068,18.069 11.493,12.72L0.812,11.872ZM12.399,0.716C6.346,1.002 1.303,5.694 0.812,11.872L11.493,12.72C11.546,12.057 12.102,11.456 12.904,11.418L12.399,0.716ZM38.286,27.728C38.286,28.701 37.552,29.386 36.748,29.422L37.223,40.126C43.921,39.828 49,34.265 49,27.728L38.286,27.728ZM12.904,29.388C12.102,29.35 11.546,28.75 11.493,28.086L0.812,28.935C1.303,35.113 6.346,39.805 12.399,40.091L12.904,29.388Z" transform="rotate(180 24.73 20.403)" fill="#106D76"/>
</svg>
