<svg width="74" height="42" viewBox="0 0 74 42" fill="none" xmlns="http://www.w3.org/2000/svg" xmlns:xlink="http://www.w3.org/1999/xlink">
<path d="M67.147,34.163L67.37,39.515C70.239,39.396 72.504,37.035 72.504,34.163L67.147,34.163ZM67.147,6.176L72.504,6.176C72.504,3.304 70.239,0.943 67.37,0.823L67.147,6.176ZM12.009,5.962L11.825,0.608L12.009,5.962ZM12.009,34.377L11.825,39.731L12.009,34.377ZM72.504,34.163L72.504,6.176L61.789,6.176L61.789,34.163L72.504,34.163ZM66.923,28.81C48.5,29.579 30.53,29.65 12.192,29.023L11.825,39.731C30.436,40.367 48.678,40.295 67.37,39.515L66.923,28.81ZM12.192,11.316C30.53,10.689 48.5,10.759 66.923,11.528L67.37,0.823C48.678,0.043 30.436,-0.029 11.825,0.608L12.192,11.316ZM0.142,11.007C-0.719,17.368 -0.719,22.971 0.142,29.331L10.759,27.894C10.027,22.487 10.027,17.851 10.759,12.445L0.142,11.007ZM11.825,0.608C6.105,0.804 0.96,4.965 0.142,11.007L10.759,12.445C10.827,11.943 11.313,11.346 12.192,11.316L11.825,0.608ZM12.192,29.023C11.313,28.992 10.827,28.395 10.759,27.894L0.142,29.331C0.96,35.374 6.105,39.535 11.825,39.731L12.192,29.023Z" transform="rotate(180 36 20.169)" fill="#106D76"/>
</svg>
