<svg width="100" height="40" viewBox="0 0 100 40" fill="none" xmlns="http://www.w3.org/2000/svg" xmlns:xlink="http://www.w3.org/1999/xlink">
<path d="M92.941,33.634L93.101,38.989C95.996,38.902 98.298,36.53 98.298,33.634L92.941,33.634ZM6.509,10.776L1.253,9.737L1.253,9.737L6.509,10.776ZM86.01,5.457L85.876,10.812L86.01,5.457ZM98.298,33.634L98.298,12.58L87.584,12.58L87.584,33.634L98.298,33.634ZM92.782,28.279C65.984,29.077 39.862,29.126 13.147,28.426L12.867,39.137C39.782,39.841 66.104,39.792 93.101,38.989L92.782,28.279ZM13.147,10.855C37.562,10.215 61.483,10.201 85.876,10.812L86.144,0.101C61.568,-0.515 37.465,-0.5 12.867,0.144L13.147,10.855ZM1.253,9.737C-0.108,16.626 -0.108,22.655 1.253,29.543L11.764,27.466C10.674,21.949 10.674,17.331 11.764,11.814L1.253,9.737ZM12.867,0.144C7.477,0.285 2.393,3.968 1.253,9.737L11.764,11.814C11.839,11.433 12.27,10.877 13.147,10.855L12.867,0.144ZM98.298,12.58C98.298,5.827 92.926,0.271 86.144,0.101L85.876,10.812C86.815,10.836 87.584,11.609 87.584,12.58L98.298,12.58ZM13.147,28.426C12.27,28.403 11.839,27.847 11.764,27.466L1.253,29.543C2.393,35.313 7.477,38.996 12.867,39.137L13.147,28.426Z" transform="rotate(180 49.265 19.64)" fill="#106D76"/>
</svg>
