<svg width="626" height="626" viewBox="0 0 626 626" fill="none" xmlns="http://www.w3.org/2000/svg" xmlns:xlink="http://www.w3.org/1999/xlink">
<path d="M15.727,409.418C22.663,430.642 31.921,450.96 43.212,470.23L312.448,200.836L424.906,313.164C424.55,358.466 396.84,399.154 354.934,416.326C313.03,433.514 265.108,423.83 233.092,391.794L188.961,435.95C242.494,489.516 324.126,502.59 391.614,468.246C459.1,433.902 497.022,360.112 485.294,285.276L312.448,112.328L15.727,409.418Z" fill="#106D76"/>
<path d="M581.8,470.198C593.09,450.928 602.284,430.512 609.22,409.29L518.312,318.426C517.554,343.424 512.474,368.118 502.908,391.214L581.8,470.198Z" fill="#106D76"/>
<path d="M91.795,533.174C213.752,655.138 411.228,655.088 533.184,533.124L488.99,489.016C391.436,586.626 233.478,586.626 135.926,489.016L91.795,533.174Z" fill="#106D76"/>
<path d="M618.43,374.332C635.252,291.328 617.656,205.064 569.654,135.294C561.846,156.34 543.298,171.51 521.168,175.142C548.96,217.506 563.234,267.344 562.072,318.022L618.43,374.332Z" fill="#106D76"/>
<path d="M542.394,113.393C542.394,96.124 528.394,82.115 511.136,82.115C493.876,82.115 479.876,96.124 479.876,113.393C479.876,130.662 493.876,144.671 511.136,144.671C528.394,144.671 542.394,130.662 542.394,113.393Z" fill="#106D76"/>
<path d="M489.344,55.002C384.468,-17.141 246.302,-18.416 140.12,51.774C33.938,121.963 -19.016,249.576 6.275,374.332L62.616,318.006C60.487,225.156 110.005,138.764 191.186,93.719C272.366,48.675 371.936,52.306 449.536,103.274C453.164,81.147 468.328,62.813 489.344,55.002Z" fill="#106D76"/>
</svg>
