<svg width="782" height="782" viewBox="0 0 782 782" fill="none" xmlns="http://www.w3.org/2000/svg" xmlns:xlink="http://www.w3.org/1999/xlink">
<path d="M20.157,511.712C28.826,538.242 40.4,563.64 54.513,587.728L391.059,250.984L531.631,391.394C531.187,448.024 496.549,498.882 444.167,520.348C391.785,541.832 331.885,529.728 291.863,489.682L236.699,544.878C303.617,611.836 405.657,628.178 490.015,585.246C574.373,542.316 621.775,450.082 607.117,356.534L391.059,140.35L20.157,511.712Z" fill="#FFFFFF"/>
<path d="M727.747,587.688C741.861,563.6 753.353,538.08 762.023,511.552L648.389,397.972C647.441,429.222 641.091,460.088 629.135,488.956L727.747,587.688Z" fill="#FFFFFF"/>
<path d="M115.242,666.406C267.687,818.862 514.533,818.8 666.979,666.346L611.735,611.21C489.795,733.224 292.347,733.224 170.405,611.21L115.242,666.406Z" fill="#FFFFFF"/>
<path d="M773.535,467.854C794.565,364.1 772.567,256.27 712.565,169.058C702.807,195.365 679.621,214.328 651.959,218.866C686.697,271.824 704.541,334.12 703.089,397.468L773.535,467.854Z" fill="#FFFFFF"/>
<path d="M678.491,141.682C678.491,120.096 660.991,102.585 639.417,102.585C617.843,102.585 600.343,120.096 600.343,141.682C600.343,163.268 617.843,180.779 639.417,180.779C660.991,180.779 678.491,163.268 678.491,141.682Z" fill="#FFFFFF"/>
<path d="M612.179,68.692C481.085,-21.485 308.375,-23.079 175.648,64.658C42.921,152.394 -23.272,311.91 8.342,467.854L78.769,397.448C76.107,281.386 138.005,173.395 239.481,117.09C340.957,60.784 465.417,65.323 562.419,129.032C566.955,101.374 585.907,78.457 612.179,68.692Z" fill="#FFFFFF"/>
</svg>
