<svg width="80" height="80" viewBox="0 0 80 80" fill="none" xmlns="http://www.w3.org/2000/svg" xmlns:xlink="http://www.w3.org/1999/xlink">
<path d="M2.01,52.437C2.898,55.155 4.084,57.758 5.53,60.226L40.013,25.722L54.416,40.109C54.371,45.911 50.822,51.123 45.455,53.322C40.088,55.523 33.95,54.283 29.849,50.18L24.197,55.835C31.054,62.696 41.509,64.37 50.152,59.972C58.796,55.573 63.653,46.122 62.151,36.537L40.013,14.387L2.01,52.437Z" fill="#F6F9FC"/>
<path d="M74.511,60.222C75.957,57.754 77.135,55.139 78.023,52.421L66.38,40.783C66.283,43.985 65.632,47.148 64.407,50.106L74.511,60.222Z" fill="#F6F9FC"/>
<path d="M11.752,68.287C27.372,83.908 52.665,83.902 68.285,68.281L62.624,62.632C50.13,75.134 29.899,75.134 17.405,62.632L11.752,68.287Z" fill="#F6F9FC"/>
<path d="M79.202,47.943C81.357,37.313 79.103,26.264 72.955,17.328C71.955,20.024 69.58,21.967 66.745,22.432C70.305,27.858 72.133,34.241 71.984,40.731L79.202,47.943Z" fill="#F6F9FC"/>
<path d="M69.464,14.523C69.464,12.311 67.671,10.517 65.461,10.517C63.25,10.517 61.457,12.311 61.457,14.523C61.457,16.735 63.25,18.529 65.461,18.529C67.671,18.529 69.464,16.735 69.464,14.523Z" fill="#F6F9FC"/>
<path d="M62.67,7.044C49.237,-2.195 31.541,-2.359 17.942,6.631C4.342,15.621 -2.44,31.965 0.799,47.943L8.015,40.729C7.743,28.838 14.085,17.773 24.482,12.003C34.88,6.234 47.632,6.699 57.571,13.227C58.036,10.393 59.978,8.045 62.67,7.044Z" fill="#F6F9FC"/>
</svg>
