<svg width="46" height="46" viewBox="0 0 46 46" fill="none" xmlns="http://www.w3.org/2000/svg" xmlns:xlink="http://www.w3.org/1999/xlink">
<path d="M22.329,0.129C16.354,0.129 15.604,0.156 13.258,0.262C10.916,0.37 9.317,0.74 7.918,1.284C6.471,1.846 5.244,2.598 4.021,3.821C2.797,5.044 2.045,6.272 1.482,7.718C0.936,9.117 0.565,10.716 0.46,13.058C0.355,15.404 0.327,16.155 0.327,22.129C0.327,28.104 0.354,28.852 0.46,31.198C0.568,33.541 0.939,35.139 1.482,36.538C2.045,37.985 2.796,39.212 4.02,40.435C5.242,41.659 6.469,42.413 7.915,42.974C9.315,43.518 10.914,43.889 13.256,43.997C15.603,44.103 16.352,44.129 22.327,44.129C28.302,44.129 29.049,44.103 31.396,43.996C33.738,43.889 35.339,43.518 36.738,42.974C38.185,42.413 39.411,41.659 40.633,40.435C41.857,39.212 42.608,37.985 43.172,36.538C43.713,35.139 44.084,33.54 44.194,31.199C44.3,28.852 44.327,28.104 44.327,22.129C44.327,16.155 44.3,15.405 44.194,13.058C44.084,10.716 43.713,9.117 43.172,7.718C42.608,6.272 41.857,5.044 40.633,3.821C39.409,2.598 38.185,1.846 36.737,1.284C35.335,0.74 33.735,0.37 31.393,0.262C29.046,0.156 28.299,0.129 22.322,0.129L22.329,0.129ZM20.356,4.094C20.941,4.093 21.595,4.094 22.329,4.094C28.203,4.094 28.9,4.115 31.219,4.22C33.364,4.319 34.528,4.677 35.304,4.978C36.331,5.377 37.063,5.854 37.832,6.624C38.602,7.394 39.079,8.127 39.478,9.154C39.78,9.928 40.138,11.092 40.236,13.237C40.341,15.556 40.364,16.253 40.364,22.124C40.364,27.996 40.341,28.692 40.236,31.011C40.138,33.156 39.78,34.321 39.478,35.095C39.08,36.122 38.602,36.853 37.832,37.622C37.062,38.392 36.331,38.869 35.304,39.268C34.529,39.57 33.364,39.928 31.219,40.026C28.9,40.131 28.203,40.154 22.329,40.154C16.455,40.154 15.758,40.131 13.439,40.026C11.294,39.927 10.13,39.569 9.354,39.267C8.327,38.869 7.594,38.392 6.824,37.622C6.054,36.852 5.577,36.121 5.178,35.093C4.877,34.319 4.518,33.155 4.42,31.01C4.315,28.69 4.294,27.994 4.294,22.119C4.294,16.244 4.315,15.551 4.42,13.232C4.518,11.087 4.877,9.923 5.178,9.147C5.576,8.12 6.054,7.387 6.824,6.617C7.594,5.847 8.327,5.37 9.354,4.971C10.13,4.668 11.294,4.311 13.439,4.212C15.469,4.121 16.255,4.093 20.356,4.088L20.356,4.094ZM34.073,7.747C32.615,7.747 31.433,8.928 31.433,10.386C31.433,11.843 32.615,13.026 34.073,13.026C35.53,13.026 36.713,11.843 36.713,10.386C36.713,8.928 35.53,7.746 34.073,7.746L34.073,7.747ZM22.329,10.831C16.09,10.831 11.031,15.89 11.031,22.129C11.031,28.369 16.09,33.425 22.329,33.425C28.569,33.425 33.625,28.369 33.625,22.129C33.625,15.89 28.568,10.831 22.329,10.831L22.329,10.831ZM22.329,14.796C26.379,14.796 29.663,18.079 29.663,22.129C29.663,26.179 26.379,29.463 22.329,29.463C18.279,29.463 14.996,26.179 14.996,22.129C14.996,18.079 18.279,14.796 22.329,14.796Z" fill="#106D76"/>
</svg>
