<svg width="802" height="800" viewBox="0 0 802 800" fill="none" xmlns="http://www.w3.org/2000/svg" xmlns:xlink="http://www.w3.org/1999/xlink">
<path d="M21.028,523.54C29.911,550.722 41.769,576.746 56.23,601.428L401.061,256.392L545.093,400.26C544.639,458.282 509.147,510.394 455.477,532.388C401.805,554.402 340.429,542 299.423,500.968L242.901,557.522C311.467,626.128 416.019,642.872 502.453,598.884C588.889,554.898 637.457,460.392 622.439,364.542L401.061,143.035L21.028,523.54Z" fill="#FFFFFF"/>
<path d="M746.039,601.386C760.499,576.706 772.275,550.556 781.159,523.374L664.727,407C663.755,439.018 657.249,470.644 644.997,500.224L746.039,601.386Z" fill="#FFFFFF"/>
<path d="M118.454,682.042C274.653,838.252 527.575,838.188 683.775,681.98L627.171,625.488C502.227,750.504 299.919,750.504 174.976,625.488L118.454,682.042Z" fill="#FFFFFF"/>
<path d="M792.953,478.602C814.501,372.294 791.963,261.808 730.483,172.449C720.483,199.404 696.727,218.834 668.383,223.484C703.979,277.746 722.261,341.576 720.773,406.482L792.953,478.602Z" fill="#FFFFFF"/>
<path d="M695.571,144.399C695.571,122.281 677.639,104.339 655.535,104.339C633.429,104.339 615.497,122.281 615.497,144.399C615.497,166.517 633.429,184.459 655.535,184.459C677.639,184.459 695.571,166.517 695.571,144.399Z" fill="#FFFFFF"/>
<path d="M627.625,69.613C493.303,-22.785 316.343,-24.418 180.347,65.479C44.352,155.375 -23.47,318.818 8.923,478.602L81.083,406.462C78.356,287.544 141.777,176.893 245.751,119.201C349.725,61.509 477.251,66.16 576.639,131.438C581.287,103.099 600.707,79.617 627.625,69.613Z" fill="#FFFFFF"/>
</svg>
