<svg width="80" height="100" viewBox="0 0 80 100" fill="none" xmlns="http://www.w3.org/2000/svg" xmlns:xlink="http://www.w3.org/1999/xlink">
<path d="M26.784,57.327L31.99,58.588C32.377,56.991 32.01,55.306 30.994,54.015C29.978,52.723 28.427,51.97 26.784,51.97L26.784,57.327ZM22.111,94.605L16.758,94.381C16.672,96.432 17.766,98.352 19.574,99.324C21.383,100.296 23.587,100.149 25.251,98.946L22.111,94.605ZM52.371,5.394L57.715,5.762C57.84,3.952 57.04,2.202 55.59,1.112C54.14,0.022 52.236,-0.26 50.532,0.362L52.371,5.394ZM50.464,33.066L45.119,32.698C45.02,34.145 45.511,35.57 46.481,36.648C47.45,37.727 48.816,38.366 50.265,38.419L50.464,33.066ZM69.41,34.83L68.493,40.108L69.41,34.83ZM5.5,47.516L0.916,44.744L5.5,47.516ZM11.406,62.684L26.784,62.684L26.784,51.97L11.406,51.97L11.406,62.684ZM21.577,56.066C18.5,68.769 17.317,81.056 16.758,94.381L27.463,94.83C28.007,81.858 29.143,70.342 31.99,58.588L21.577,56.066ZM47.026,5.026L45.119,32.698L55.808,33.434L57.715,5.762L47.026,5.026ZM50.265,38.419C56.528,38.652 63.045,39.161 68.493,40.108L70.328,29.552C64.207,28.488 57.152,27.953 50.662,27.713L50.265,38.419ZM68.713,40.393C61.567,52.282 44.289,71.949 18.971,90.265L25.251,98.946C51.438,80.001 69.835,59.323 77.896,45.912L68.713,40.393ZM10.084,50.288C20.867,32.456 38.14,16.299 54.21,10.426L50.532,0.362C31.497,7.319 12.532,25.533 0.916,44.744L10.084,50.288ZM68.493,40.108C68.664,40.138 68.739,40.189 68.761,40.206C68.788,40.226 68.792,40.239 68.79,40.235C68.789,40.233 68.788,40.23 68.787,40.226C68.786,40.221 68.786,40.218 68.786,40.218C68.786,40.218 68.786,40.229 68.779,40.253C68.771,40.277 68.754,40.324 68.713,40.393L77.896,45.912C81.997,39.088 77.878,30.865 70.328,29.552L68.493,40.108ZM11.406,51.97C10.717,51.97 10.275,51.64 10.061,51.29C9.953,51.115 9.915,50.954 9.912,50.826C9.91,50.717 9.931,50.542 10.084,50.288L0.916,44.744C-4.206,53.214 2.569,62.684 11.406,62.684L11.406,51.97Z" fill="#106D76"/>
</svg>
